<?xml version="1.0" standalone="no"?>
<!DOCTYPE svg PUBLIC "-//W3C//DTD SVG 20010904//EN"
 "http://www.w3.org/TR/2001/REC-SVG-20010904/DTD/svg10.dtd">
<svg version="1.0" xmlns="http://www.w3.org/2000/svg"
 width="1070.000000pt" height="1280.000000pt" viewBox="0 0 1070.000000 1280.000000"
 preserveAspectRatio="xMidYMid meet">
<metadata>
Created by potrace 1.15, written by Peter Selinger 2001-2017
</metadata>
<g transform="translate(0.000000,1280.000000) scale(0.100000,-0.100000)"
fill="#ff9800" stroke="none">
<path d="M4705 12789 c-1103 -74 -2120 -490 -2965 -1213 -135 -115 -401 -381
-516 -516 -666 -779 -1067 -1692 -1188 -2705 -145 -1215 170 -2462 877 -3470
216 -307 534 -661 813 -903 305 -265 672 -511 1056 -706 l116 -59 -31 -51
c-41 -68 -235 -260 -323 -319 -76 -52 -81 -53 -284 -91 -256 -47 -523 -82
-725 -95 -149 -9 -202 -30 -240 -95 -14 -24 -25 -55 -25 -71 0 -120 125 -245
315 -314 223 -81 441 -97 1125 -84 797 14 1048 -3 1270 -89 118 -46 200 -121
229 -211 8 -22 14 -107 15 -210 2 -158 4 -177 28 -239 37 -98 84 -171 165
-257 328 -352 1073 -572 1943 -575 249 -1 341 9 399 45 60 36 40 88 -94 234
-171 188 -200 269 -130 361 93 122 456 217 1850 484 531 102 965 189 1198 241
602 133 959 253 1057 354 30 31 35 42 34 83 -1 66 -28 117 -99 187 -104 103
-294 200 -559 289 -228 76 -516 142 -726 166 -120 14 -155 25 -180 57 -29 37
-25 69 21 206 46 137 62 255 38 283 -25 31 -78 44 -206 54 -158 12 -382 1
-915 -45 -218 -19 -400 -35 -404 -35 -4 0 37 28 92 63 816 520 1488 1304 1882
2197 676 1532 546 3295 -347 4715 -576 916 -1450 1633 -2458 2014 -673 255
-1412 367 -2108 320z"/>
<path d="M8423 1450 c-134 -9 -288 -30 -569 -75 -558 -90 -844 -172 -844 -240
0 -23 58 -60 195 -126 333 -158 395 -190 411 -214 33 -51 17 -61 -308 -181
-394 -146 -507 -215 -453 -274 22 -24 93 -47 170 -55 85 -8 217 8 486 60 304
59 407 71 481 56 71 -15 104 -41 119 -92 18 -60 0 -105 -76 -187 -36 -38 -65
-73 -65 -76 0 -18 82 -38 174 -43 313 -17 817 139 1047 325 165 134 189 261
71 385 -50 52 -122 76 -262 88 -170 14 -246 27 -290 49 -98 50 -125 170 -49
224 40 28 139 54 339 91 215 39 295 69 318 118 11 22 11 32 0 54 -28 59 -123
94 -300 113 -105 11 -428 11 -595 0z"/>
</g>
</svg>
